<?xml version="1.0" encoding="UTF-8"?>
<svg id="Layer_2" data-name="Layer 2" xmlns="http://www.w3.org/2000/svg" viewBox="0 0 127.72 50.55">
  <defs>
    <style>
      .cls-1 {
        fill: #ed1c24;
      }

      .cls-2 {
        fill: #00a651;
      }

      .cls-3 {
        fill: #231f20;
      }
    </style>
  </defs>
  <g id="Livello_1" data-name="Livello 1">
    <g>
      <g>
        <path class="cls-3" d="m55.91,31.22c-2.19,2.02-4.68,1.7-5.55-.46-.91.94-1.9,1.7-3.24,1.8-1.42.1-2.44-.52-3.04-1.75-.6.46-1.12.95-1.71,1.3-1.41.85-3.12.53-3.87-.68-.19-.3-.3-.66-.43-.96-.45.46-.87,1-1.39,1.4-2.03,1.55-4.76.43-5.09-2.11-.3-2.26.09-4.39,1.49-6.24,1.15-1.51,2.7-2.25,4.61-1.94.56.09,1.08.46,1.69.74.59-.85,1.53-.92,2.55-.78.4.06.47.22.39.63-.47,2.33-.91,4.66-1.3,7-.06.36.14.9.4,1.15.37.35.9.18,1.31-.1.73-.5,1.2-1.1,1.29-2.07.15-1.57.5-3.11.77-4.67.12-.68.1-.73-.58-.74-.39,0-.82.03-.83-.52,0-.49.33-.67.77-.74,1.01-.16,1.02-.17,1.19-1.2.08-.48.11-.97.09-1.46,0-.32.09-.54.38-.54.62,0,1.26,0,1.87.11.45.08.69.48.68.94-.02.52-.08,1.05-.17,1.56-.06.37.02.56.43.54.36-.01.73,0,1.09,0,.36,0,.67.07.69.5.02.41-.2.67-.59.73-.43.06-.87.08-1.3.06-.46-.02-.68.11-.76.6-.28,1.81-.61,3.61-.92,5.42-.04.21-.04.44-.01.65.09.77.45,1.08,1.23,1.07,1.14-.01,2.15-.92,2.32-2.04.23-1.47.49-2.93.71-4.4.1-.64.15-1.3.17-1.94.01-.34.12-.54.45-.54.52-.01,1.05-.04,1.56.02.58.08.97.54.93,1.16-.07.92-.23,1.83-.37,2.74-.16,1.04-.37,2.07-.53,3.11-.05.3-.06.62-.04.92.05.85.68,1.21,1.46.86.42-.19.74-.46.93-.93.32-.82,1.43-1.19,2.2-.75.15.08.24.33.28.52.07.35,0,.74.11,1.07.19.57.6.92,1.24.99.7.07,1.35.01,1.83-.57.4-.48.29-1.24-.28-1.63-.6-.41-1.26-.72-1.88-1.09-.59-.35-1.19-.7-1.74-1.1-1.39-1.02-1.27-3.51.42-4.56,1.11-.69,2.34-.9,3.6-.8.79.06,1.6.3,2.35.59.68.26,1.16.81,1.38,1.53.2.64.04,1.18-.44,1.56-.46.36-1.43.47-1.85.16-.12-.09-.21-.33-.2-.49.12-1.65-1.13-2.56-2.67-1.93-.88.36-1.05,1.52-.26,2.06.66.45,1.39.78,2.09,1.17.33.19.67.36.99.57,2.2,1.47,2.03,4.19-.38,5.29-1.72.78-3.53.8-5.29.05-.44-.19-.8-.54-1.24-.85Zm-21.49-2.6c.05.34.07.69.16,1.02.25.83,1.09,1.13,1.76.59.37-.3.69-.7.94-1.11.83-1.39,1.22-2.94,1.51-4.52.14-.77-.32-1.35-1.09-1.41-.84-.07-1.41.37-1.89.98-1.02,1.31-1.29,2.85-1.39,4.45Z"/>
        <path class="cls-3" d="m24.99,27.92c-.45-.02-.91-.03-1.36-.07-.26-.03-.42.01-.45.3-.15,1.27-.28,2.55-.46,3.82-.03.19-.24.49-.4.51-.53.07-1.09.11-1.62.02-.82-.14-1.21-.83-1.06-1.79.19-1.25.43-2.5.64-3.75.37-2.14.75-4.29,1.1-6.43.08-.46.08-.94.05-1.41-.04-.51.18-.71.64-.72.38-.01.76-.03,1.14,0,.84.05,1.33.52,1.29,1.36-.04.85-.18,1.69-.32,2.53-.2,1.22-.42,2.43-.64,3.64-.08.44.05.61.53.64,2.94.14,4.3-2.04,4.46-4.12.1-1.29-.06-2.5-.98-3.5-.75-.82-1.71-1.22-2.77-1.38-1.43-.22-2.86-.26-4.23.29-.88.35-1.57.9-1.82,1.87-.19.72.08,1.18.81,1.28.36.05.46.24.32.51-.13.26-.32.55-.55.71-.81.54-1.67.45-2.47-.02-.78-.45-1.09-1.2-1.01-2.08.11-1.3.87-2.19,1.93-2.86,1.04-.66,2.19-.96,3.38-1.11,1.98-.24,3.94-.19,5.88.31,2.12.54,3.81,1.6,4.54,3.8,1.01,3.07-.91,6.57-4.04,7.32-.82.2-1.67.3-2.5.44,0-.03-.01-.06-.02-.09Z"/>
        <path class="cls-3" d="m85.78,30.75c-.26.2-.43.34-.6.46-2.19,1.46-4.5,1.93-6.93.69-1.42-.72-2.12-1.99-2.24-3.56-.18-2.39.61-4.38,2.59-5.77,1.55-1.08,3.29-1.46,5.1-.71,1.52.62,1.87,2.36.8,3.61-.93,1.09-2.2,1.57-3.5,1.99-.5.16-1.01.3-1.53.38-.47.07-.49.28-.38.67.38,1.26,1.2,1.99,2.53,2.12,1.29.13,2.49-.14,3.56-.91.65-.47,1.06-1.04,1.16-1.87.16-1.28.43-2.54.62-3.81.09-.63.15-1.26.15-1.89,0-.4.14-.59.52-.59.45,0,.9-.04,1.35,0,.73.08,1.08.51,1.09,1.25,0,.39-.04.79-.07,1.2.44-.49.81-1.04,1.32-1.42.56-.43,1.2-.86,1.88-1.02,1.43-.34,2.36.61,2.2,2.07-.14,1.23-1.19,2.03-2.38,1.81-.35-.06-.55-.16-.44-.61.08-.31-.05-.67-.08-1.01-.31.14-.7.2-.93.42-1.06,1.02-1.77,2.28-2.11,3.68-.33,1.35-.46,2.74-.71,4.11-.03.18-.25.45-.4.46-.54.05-1.09.07-1.62-.01-.56-.09-.86-.5-.9-1.08-.01-.18-.02-.36-.04-.66Zm-6.63-4.09c1.23-.34,2.38-.78,3.07-1.94.17-.29.28-.64.31-.97.09-.84-.3-1.14-1.11-.9-1.25.37-2.47,2.37-2.27,3.81Z"/>
        <path class="cls-3" d="m101.94,30.49c-.6.52-1.2,1.12-1.89,1.6-.71.49-1.56.62-2.4.42-1.18-.28-1.96-1.2-1.93-2.44.02-1.15.19-2.31.35-3.45.17-1.26.4-2.51.6-3.76.02-.12.02-.25.02-.38,0-.88,0-.91.89-.98.41-.03.84.02,1.24.11.58.14.87.63.79,1.37-.09.86-.25,1.72-.38,2.58-.19,1.22-.39,2.43-.55,3.65-.06.43-.05.91.42,1.15.47.24.92.09,1.33-.18.7-.46,1.1-1.01,1-1.97-.27-2.71,1.07-5.03,3.46-6.18,1.2-.57,2.47-.73,3.76-.39,1.88.5,2.47,2.39,1.21,3.87-.91,1.07-2.19,1.51-3.48,1.92-.48.15-.98.28-1.48.37-.44.08-.5.32-.4.7.37,1.37,1.6,2.2,3.09,2.14,1.53-.06,2.83-.57,3.84-1.75.1-.12.33-.14.5-.21.06.21.22.48.15.62-.25.47-.52.96-.89,1.34-1.75,1.8-5.13,2.59-7.49,1.25-.66-.38-1.2-.96-1.75-1.42Zm2.6-3.84c1.19-.29,2.27-.75,2.99-1.79.22-.31.34-.72.39-1.11.1-.9-.31-1.19-1.17-.89-1.23.43-2.4,2.41-2.2,3.79Z"/>
        <path class="cls-3" d="m69.61,32.57c-1.02.04-2.03-.16-2.92-.75-.72-.47-1.19-1.11-1.14-2.03.03-.52.32-.89.78-1.1.54-.25,1.1-.26,1.62.04.1.06.15.27.17.42.03.18-.02.36,0,.54.06.65.28,1.24.94,1.47.71.25,1.44.22,2.07-.27.59-.45.53-1.39-.14-1.87-.45-.33-.98-.55-1.46-.84-.7-.42-1.44-.78-2.07-1.29-1.34-1.08-1.33-3.08-.05-4.24.63-.57,1.38-.87,2.19-1.02,1.3-.23,2.6-.26,3.85.28.8.34,1.42.87,1.71,1.72.2.61.04,1.19-.45,1.56-.5.38-1.42.48-1.85.15-.11-.09-.19-.3-.18-.45.1-1.66-1.1-2.57-2.65-1.98-.46.18-.74.53-.8,1.02-.06.53.21.92.64,1.17.85.49,1.73.92,2.57,1.42.44.27.89.59,1.22.98,1.11,1.3.77,3.3-.68,4.22-1.02.64-2.14.87-3.36.85Z"/>
        <path class="cls-3" d="m97.35,18.24c0-.82.8-1.64,1.59-1.64.8,0,1.44.65,1.44,1.47,0,.86-.78,1.64-1.65,1.62-.79-.02-1.39-.64-1.38-1.46Z"/>
        <path class="cls-3" d="m54.99,18.07c0,.86-.74,1.62-1.58,1.63-.81,0-1.45-.64-1.45-1.45,0-.82.79-1.63,1.59-1.63.8,0,1.44.64,1.44,1.46Z"/>
      </g>
      <g>
        <path class="cls-3" d="m82.18,14.34c-2.08,2.87-5.55,2.98-6.71.27-.24.26-.46.52-.7.75-1.06.99-2.25,1.52-3.72,1.05-.7-.22-.98-.52-1.68-1.78-.16.24-.25.47-.41.62-1.17,1.04-2.47,1.67-4.08,1.14-.76-.25-1.32-.74-1.64-1.49-.06-.15-.13-.29-.22-.49-.35.29-.65.58-.98.81-1.92,1.33-4.02,1.79-6.25.99-2.12-.76-2.99-2.49-2.94-4.62.05-2.04.86-3.77,2.57-4.99,1.38-.99,2.93-1.33,4.59-.98.91.2,1.68.69,1.91,1.66.25,1.07-.15,1.97-.98,2.66-1.23,1.01-2.71,1.45-4.21,1.81-.85.2-.96.39-.58,1.18.47.99,1.22,1.65,2.35,1.67.73.01,1.5,0,2.2-.21,1.4-.42,2.39-1.23,2.52-2.88.12-1.4.44-2.79.71-4.18.09-.45-.05-.61-.49-.58-.13.01-.28.04-.38-.01-.2-.1-.53-.25-.53-.39,0-.24.13-.58.32-.72.21-.15.55-.18.83-.17.44.02.64-.18.68-.58.07-.65.18-1.3.18-1.94,0-.45.17-.63.58-.68.11-.01.22-.04.32-.04,1.48-.04,2.33.33,2,2.09-.22,1.14-.17,1.15,1.01,1.15.13,0,.25,0,.38,0,.36,0,.67.08.7.5.03.4-.21.67-.59.73-.45.06-.9.08-1.36.05-.43-.02-.61.13-.68.56-.3,1.86-.65,3.72-.95,5.58-.2,1.24.64,1.94,1.82,1.51.94-.34,1.6-.91,1.74-2.01.24-1.81.57-3.62.86-5.42.03-.2.05-.4.04-.6-.03-.74-.04-.77.68-.83.43-.04.87-.02,1.29.04.56.08.92.47.92,1.04,0,.61-.07,1.23-.16,1.84-.19,1.24-.44,2.46-.64,3.7-.07.45-.11.9-.11,1.35,0,.83.61,1.24,1.37.89.91-.43,1.54-1.1,1.71-2.16.26-1.63.54-3.25.85-4.87.09-.47-.02-.65-.49-.61-.11.01-.22,0-.33,0-.33,0-.64-.11-.59-.46.03-.26.22-.56.44-.71.2-.14.52-.12.79-.12.36,0,.56-.14.6-.48.08-.72.17-1.44.2-2.16.01-.31.09-.51.39-.53.49-.03.99-.1,1.46-.02.87.14,1.22.69,1.11,1.57-.05.38-.12.75-.18,1.13-.05.32.07.48.4.48.36,0,.73,0,1.09,0,.37,0,.66.07.69.51.03.43-.2.71-.62.76-.43.05-.87.04-1.3.03-.39-.01-.59.1-.66.52-.32,1.9-.68,3.78-.98,5.68-.18,1.13.66,1.85,1.75,1.46.55-.2,1.02-.65,1.48-1.04.13-.11.13-.43.1-.65-.27-2.07.24-3.88,1.67-5.42,1.5-1.61,4.19-2.28,5.98-1.48,1.59.71,1.9,2.65.64,3.86-1.06,1.02-2.38,1.49-3.76,1.87-.4.11-.81.22-1.21.3-.29.06-.34.2-.29.46.36,2,3.15,3.07,4.76,1.82.18-.14.46-.15.69-.21-.01.25.06.55-.05.75-.66,1.25-1.85,1.73-3.15,1.85-1.87.17-3.48-.38-4.59-2.01-.04-.06-.1-.1-.18-.19Zm2.54-3.68c1.03-.23,1.94-.63,2.66-1.35.31-.31.6-.72.7-1.14.09-.39.07-.97-.16-1.25-.31-.38-.85-.14-1.26.07-1.1.56-2.05,2.33-1.94,3.67Zm-28.69,0c1.11-.29,2.12-.69,2.81-1.58.29-.38.49-.89.56-1.37.12-.82-.31-1.11-1.12-.86-1.23.38-2.46,2.41-2.25,3.81Z"/>
        <path class="cls-3" d="m46.22,11.88c-.36,0-.73.04-1.09-.01-.39-.05-.58.05-.62.45-.13,1.19-.31,2.37-.41,3.56-.03.41-.17.63-.55.65-.47.03-.95.07-1.41,0-.78-.11-1.2-.63-1.13-1.47.09-1.08.3-2.15.47-3.23.43-2.65.88-5.29,1.31-7.94.05-.28.04-.58,0-.87-.05-.38.12-.58.45-.6.56-.03,1.13-.06,1.67.02.64.1,1.02.62.98,1.37-.05.85-.21,1.69-.35,2.53-.21,1.23-.43,2.46-.66,3.69-.06.32.06.46.38.51,2,.26,3.9-1.03,4.42-3,.33-1.26.39-2.52-.19-3.72-.73-1.51-2.1-2.14-3.65-2.33-1.35-.17-2.72-.18-4.02.37-.84.36-1.49.9-1.73,1.82-.2.75.07,1.19.83,1.31.44.07.37.32.28.59-.19.57-.97,1-1.75.97-1.8-.07-2.78-1.67-2.08-3.37.56-1.36,1.68-2.07,2.97-2.53C42.13.01,43.97-.08,45.84.05c1.33.09,2.63.31,3.86.83,2.25.95,3.5,2.67,3.47,5.1-.03,2.38-1.12,4.2-3.36,5.23-1.18.54-2.16.72-3.59.66Z"/>
        <path class="cls-3" d="m74.08,2.05c0,.89-.75,1.66-1.61,1.64-.8-.02-1.4-.62-1.41-1.43,0-.84.75-1.64,1.57-1.65.83,0,1.45.61,1.45,1.43Z"/>
      </g>
      <path class="cls-1" d="m93.15,48.43c-.43.32-.82.7-1.29.95-1.78.95-3.6,1.14-5.42.09-1.4-.81-2.14-3-1.49-4.47.49-1.12,1.48-1.64,2.59-1.89,1.84-.42,3.7-.34,5.56-.1,2.57.33,5.07.96,7.54,1.7,1.85.55,3.68,1.17,5.54,1.68,1.44.39,2.92.28,4.38.09,1.46-.19,2.78-.8,4.1-1.43.17-.08.34-.14.54-.22-.17.78-1.02,1.44-3.73,2.94.26.09.45.18.65.22,2.23.44,4.48.6,6.74.43,2.47-.18,4.82-.8,6.81-2.4.77-.62,1.35-1.4,1.8-2.28.07-.13.14-.26.26-.36-.07.89-.46,1.65-.99,2.34-1.22,1.56-2.87,2.49-4.71,3.14-2.56.9-5.21,1.02-7.85.77-1.94-.19-3.89-.58-5.78-1.1-4.03-1.1-8.02-2.37-12.05-3.52-2.16-.61-4.37-.99-6.62-1.02-.92-.01-1.88.16-2.77.43-1.19.36-1.64,1.49-1.28,2.8.41,1.45,1.64,2.37,3.31,2.43,1.34.05,2.57-.33,3.66-1.11.11-.08.22-.16.34-.23.01,0,.03,0,.05,0,.04.04.07.08.11.13Zm22.16-6.63c-.17.13-.34.26-.52.38-.4.25-.8.53-1.23.73-1.89.88-3.9.92-5.88.51-2.15-.45-4.26-1.09-6.38-1.7-2.31-.67-4.61-1.4-7.02-1.66-2.02-.22-3.83.24-5.46,1.46-.08.06-.13.16-.28.34.38-.12.63-.17.86-.27.96-.42,1.95-.58,3-.56,1.91.04,3.7.62,5.5,1.16,2.86.87,5.66,1.93,8.63,2.41,2.05.33,4.09.38,6.05-.43,1.16-.47,2.17-1.14,2.82-2.24-.03-.04-.06-.09-.09-.13Z"/>
      <path class="cls-2" d="m34.68,48.3s.04,0,.05,0c.11.08.23.15.34.23,1.1.78,2.32,1.16,3.66,1.11,1.67-.06,2.91-.97,3.31-2.43.36-1.31-.09-2.44-1.28-2.8-.89-.27-1.84-.44-2.77-.43-2.25.02-4.46.41-6.62,1.02-4.02,1.14-8.01,2.41-12.05,3.52-1.89.52-3.83.91-5.78,1.1-2.64.26-5.29.13-7.85-.77-1.84-.65-3.49-1.58-4.71-3.14-.54-.68-.93-1.45-.99-2.34.12.11.19.23.26.36.44.88,1.02,1.65,1.8,2.28,1.99,1.6,4.34,2.22,6.81,2.4,2.26.17,4.51.02,6.74-.43.2-.04.39-.13.65-.22-2.71-1.5-3.56-2.16-3.73-2.94.2.08.37.14.54.22,1.31.62,2.64,1.24,4.1,1.43,1.46.19,2.94.3,4.38-.09,1.86-.51,3.69-1.12,5.54-1.68,2.47-.74,4.98-1.37,7.54-1.7,1.86-.24,3.72-.32,5.56.1,1.11.25,2.1.77,2.59,1.89.64,1.46-.09,3.66-1.49,4.47-1.82,1.04-3.64.86-5.42-.09-.46-.25-.86-.63-1.29-.95.04-.04.07-.08.11-.13Zm-22.36-6.37c.66,1.09,1.67,1.76,2.82,2.24,1.97.8,4,.76,6.05.43,2.97-.48,5.77-1.54,8.63-2.41,1.8-.54,3.59-1.12,5.5-1.16,1.04-.02,2.04.14,3,.56.23.1.48.15.86.27-.15-.19-.2-.28-.28-.34-1.62-1.22-3.44-1.68-5.46-1.46-2.41.27-4.71.99-7.02,1.66-2.11.61-4.23,1.26-6.38,1.7-1.98.41-3.99.37-5.88-.51-.43-.2-.82-.48-1.23-.73-.18-.11-.34-.25-.52-.38-.03.04-.06.09-.09.13Z"/>
      <g>
        <path class="cls-3" d="m44.44,38.2h1.28c.78,0,1.28.51,1.28,1.29v.63c0,.78-.5,1.29-1.28,1.29h-.46v2.2h-.82v-5.41Zm1.24,2.44c.32,0,.5-.19.5-.5v-.66c0-.32-.19-.5-.5-.5h-.43v1.67h.43Z"/>
        <path class="cls-3" d="m49.78,42.41h-.88l-.18,1.2h-.82l.9-5.41h1.1l.9,5.41h-.83l-.18-1.2Zm-.11-.79l-.33-2.26-.33,2.26h.66Z"/>
        <path class="cls-3" d="m52.02,42.36v-.19l.79-.08v.2c0,.39.2.63.53.63s.53-.2.53-.52c0-.34-.14-.59-.75-1.17-.81-.77-1.04-1.18-1.04-1.78,0-.8.46-1.33,1.24-1.33s1.24.53,1.24,1.34v.14l-.79.08v-.15c0-.42-.16-.63-.45-.63s-.45.18-.45.52.17.59.75,1.17c.79.79,1.04,1.18,1.04,1.78,0,.77-.54,1.33-1.32,1.33s-1.32-.56-1.32-1.33Z"/>
        <path class="cls-3" d="m55.84,38.2h2.61v.77h-.9v4.64h-.82v-4.64h-.9v-.77Z"/>
        <path class="cls-3" d="m59.86,38.2h.82v5.41h-.82v-5.41Z"/>
        <path class="cls-3" d="m62.28,42.41v-3c0-.76.52-1.28,1.28-1.28s1.28.53,1.28,1.28v.63h-.8v-.63c0-.32-.19-.51-.47-.51s-.47.19-.47.51v3c0,.32.19.51.47.51s.47-.19.47-.51v-.77h.8v.77c0,.76-.52,1.28-1.28,1.28s-1.28-.53-1.28-1.28Z"/>
        <path class="cls-3" d="m66.33,42.41v-3c0-.76.52-1.28,1.28-1.28s1.28.53,1.28,1.28v.63h-.8v-.63c0-.32-.19-.51-.47-.51s-.47.19-.47.51v3c0,.32.19.51.47.51s.47-.19.47-.51v-.77h.8v.77c0,.76-.52,1.28-1.28,1.28s-1.28-.53-1.28-1.28Z"/>
        <path class="cls-3" d="m70.42,38.2h2.33v.77h-1.51v1.51h1.2v.77h-1.2v1.58h1.51v.77h-2.33v-5.41Z"/>
        <path class="cls-3" d="m76.04,43.61l-.6-2.23h-.43v2.23h-.82v-5.41h1.28c.78,0,1.28.51,1.28,1.29v.6c0,.5-.21.89-.56,1.11l.69,2.42h-.85Zm-1.02-3.01h.43c.32,0,.5-.19.5-.5v-.63c0-.32-.19-.5-.5-.5h-.43v1.63Z"/>
        <path class="cls-3" d="m78.34,38.2h.82v5.41h-.82v-5.41Z"/>
        <path class="cls-3" d="m82.44,42.41h-.88l-.18,1.2h-.82l.9-5.41h1.1l.9,5.41h-.83l-.18-1.2Zm-.11-.79l-.33-2.26-.33,2.26h.66Z"/>
        <path class="cls-3" d="m50.34,45.14h.82v5.41h-.82v-5.41Z"/>
        <path class="cls-3" d="m52.57,45.14h2.61v.77h-.9v4.64h-.82v-4.64h-.9v-.77Z"/>
        <path class="cls-3" d="m57.87,49.36h-.88l-.18,1.2h-.82l.9-5.41h1.1l.9,5.41h-.83l-.18-1.2Zm-.11-.79l-.33-2.26-.33,2.26h.66Z"/>
        <path class="cls-3" d="m60.29,45.14h.82v4.64h1.46v.77h-2.28v-5.41Z"/>
        <path class="cls-3" d="m63.98,45.14h.82v5.41h-.82v-5.41Z"/>
        <path class="cls-3" d="m68.08,49.36h-.88l-.18,1.2h-.82l.9-5.41h1.1l.9,5.41h-.83l-.18-1.2Zm-.11-.79l-.33-2.26-.33,2.26h.66Z"/>
        <path class="cls-3" d="m70.5,45.14h.9l1.04,3.63v-3.63h.8v5.41h-.87l-1.08-3.46v3.46h-.8v-5.41Z"/>
        <path class="cls-3" d="m76.54,49.36h-.88l-.18,1.2h-.82l.9-5.41h1.1l.9,5.41h-.83l-.18-1.2Zm-.11-.79l-.33-2.26-.33,2.26h.66Z"/>
      </g>
    </g>
  </g>
</svg>